HIERARCHY
ROOT Hips
{
  OFFSET 0 0 0
  CHANNELS 6 Xposition Yposition Zposition Zrotation Xrotation Yrotation
  JOINT Spine
  {
    OFFSET 0.00000000 0.00000000 0.00000000
    CHANNELS 3 Zrotation Xrotation Yrotation
    JOINT Spine1
    {
      OFFSET 0.19000000 0.00000000 0.00000000
      CHANNELS 3 Zrotation Xrotation Yrotation
      JOINT Neck
      {
        OFFSET 0.22500000 0.00600000 0.00000000
        CHANNELS 3 Zrotation Xrotation Yrotation
        JOINT Head
        {
          OFFSET 0.14000000 0.00030878 0.00000000
          CHANNELS 3 Zrotation Xrotation Yrotation
          End Site
          {
            OFFSET 0.17000000 0.00000000 0.00000000
          }
        }
      }
      JOINT LeftShoulder
      {
        OFFSET 0.19800000 0.03700000 0.04300000
        CHANNELS 3 Zrotation Xrotation Yrotation
        JOINT LeftArm
        {
          OFFSET 0.08000000 0.00000000 0.00000000
          CHANNELS 3 Zrotation Xrotation Yrotation
          JOINT LeftForeArm
          {
            OFFSET 0.15200000 0.00000000 0.00000000
            CHANNELS 3 Zrotation Xrotation Yrotation
            JOINT LeftHand
            {
              OFFSET 0.17800000 0.00000000 0.00000000
              CHANNELS 3 Zrotation Xrotation Yrotation
              End Site
              {
                OFFSET 0.07200000 0.00000000 0.00000000
              }
            }
          }
        }
      }
      JOINT RightShoulder
      {
        OFFSET 0.19800000 0.03700000 -0.04300000
        CHANNELS 3 Zrotation Xrotation Yrotation
        JOINT RightArm
        {
          OFFSET 0.08000000 0.00000000 0.00151654
          CHANNELS 3 Zrotation Xrotation Yrotation
          JOINT RightForeArm
          {
            OFFSET 0.15200000 0.00000000 0.00000000
            CHANNELS 3 Zrotation Xrotation Yrotation
            JOINT RightHand
            {
              OFFSET 0.17800000 0.00000000 0.00000000
              CHANNELS 3 Zrotation Xrotation Yrotation
              End Site
              {
                OFFSET 0.07200000 0.00000000 0.00000000
              }
            }
          }
        }
      }
    }
  }
  JOINT LeftUpLeg
  {
    OFFSET 0.05984250 -0.07666000 0.04788790
    CHANNELS 3 Zrotation Xrotation Yrotation
    JOINT LeftLeg
    {
      OFFSET 0.16000000 0.00000000 0.00000000
      CHANNELS 3 Zrotation Xrotation Yrotation
      JOINT LeftFoot
      {
        OFFSET 0.18000000 0.00000000 0.00000000
        CHANNELS 3 Zrotation Xrotation Yrotation
        End Site
        {
          OFFSET 0.00000000 -0.10800000 0.00000000
        }
      }
    }
  }
  JOINT RightUpLeg
  {
    OFFSET 0.05984250 -0.07665980 -0.04788790
    CHANNELS 3 Zrotation Xrotation Yrotation
    JOINT RightLeg
    {
      OFFSET 0.16000000 0.00000000 0.00000000
      CHANNELS 3 Zrotation Xrotation Yrotation
      JOINT RightFoot
      {
        OFFSET 0.18000000 0.00000000 0.00000000
        CHANNELS 3 Zrotation Xrotation Yrotation
        End Site
        {
          OFFSET 0.00000000 -0.10800000 0.00000000
        }
      }
    }
  }
  JOINT Tail
  {
    OFFSET 0.06836960 -0.00722574 0.00000000
    CHANNELS 3 Zrotation Xrotation Yrotation
    JOINT Tail1
    {
      OFFSET 0.12000000 0.00000000 0.00000000
      CHANNELS 3 Zrotation Xrotation Yrotation
      End Site
      {
        OFFSET 0.12000000 0.00000000 0.00000000
      }
    }
  }
}
MOTION
Frames:	6
Frame Time:	0.0166667
-1.9787810 0.4500550 -0.0713680 -2.68955 4.30176 -20.7850 -166.722 -3.14312 -15.9683 -12.2732 -0.987646 4.36039 -5.89044 -5.68985 10.1738 -113.173 69.6402 120.706 -112.936 -41.3008 -135.948 121.712 -14.8085 -126.8 -54.8573 -65.6609 41.7155 28.0681 1.04953 -34.6811 77.8135 -22.9995 34.2825 59.5646 -42.2075 -36.4363 -73.1388 -18.204 -3.01752 -18.9229 -1.08979 7.87618 -143.64 2.2674 -14.9162 95.3535 12.3553 1.68638 35.0438 -2.13732 -4.12071 -113.794 -0.43576 -2.77545 80.8519 -16.6213 -3.50412 40.0705 2.61088 1.56049 -27.5988 28.2985 -4.68184 -1.01632 -31.6197 2.84183 
-1.9998189 0.4514350 -0.0739127 -2.76471 4.32174 -21.0306 -168.129 -3.41475 -18.4813 -10.3546 -1.80784 7.5921 -5.7439 -4.53026 9.31344 -115.131 69.9511 122.199 -112.964 -41.7969 -135.192 121.564 -9.54673 -125.408 -72.354 -44.6958 22.4119 20.85 2.26474 -14.3557 78.7685 -21.4079 32.7558 59.9094 -41.7866 -33.9832 -70.5543 -18.4194 -2.92699 -19.5365 -0.671885 6.47623 -145.354 2.6601 -15.7135 88.7379 12.2442 3.18745 38.2868 -2.2284 -4.33786 -110.809 -1.49604 -3.18821 80.2109 -16.2504 -2.86675 42.2273 2.72672 1.42061 -24.2465 26.0064 -6.91937 -0.999387 -27.0433 1.33442 
-2.0213924 0.4533820 -0.0768544 -2.93624 4.23662 -20.4055 -169.727 -3.2795 -20.3991 -7.61728 -2.38927 11.4287 -6.21118 -3.46168 7.94562 -116.58 70.1956 123.414 -113.142 -42.4766 -134.495 124.586 -6.11515 -124.816 -73.1851 -19.6719 15.1274 1.47998 1.08024 -6.08016 79.3888 -20.406 31.7415 58.8394 -41.8232 -32.1961 -67.2128 -18.362 -2.60623 -19.8081 -0.499302 5.8244 -145.332 2.52919 -16.4671 80.2928 13.6678 5.37322 42.0247 -2.60251 -4.91392 -107.431 -2.23658 -3.92831 78.6973 -14.7003 -2.20469 45.2447 2.64656 0.964893 -20.5363 24.0278 -10.0373 -0.525898 -22.7893 0.0575201 
-2.0438482 0.4550950 -0.0797872 -3.00545 4.10216 -19.0074 -171.443 -2.78673 -21.5348 -4.47146 -2.64473 15.5666 -7.55853 -2.61522 6.04727 -116.977 70.1817 124.152 -113.349 -43.3395 -133.595 129.14 -3.96264 -123.354 -69.5018 -14.3275 12.4944 -6.36197 2.75416 -14.8104 79.8103 -19.8188 31.401 57.1858 -42.0118 -31.5282 -63.559 -18.7781 -1.95395 -19.705 -0.206885 4.87954 -144.884 1.88455 -17.0679 71.787 15.7973 8.08253 47.1981 -3.20774 -5.65341 -103.746 -2.55253 -4.87319 76.4631 -12.6123 -1.70784 48.1764 2.43143 0.413955 -16.8885 22.1775 -13.8448 0.23127 -19.2078 -0.783068 
-2.0665819 0.4569160 -0.0820304 -2.78886 4.16066 -17.2002 -173.178 -2.19132 -21.6401 -1.58555 -2.6526 18.9337 -9.09996 -1.81736 4.32575 -117.049 70.1586 125 -113.623 -44.3963 -132.577 125.551 2.8119 -118.69 -63.1351 -13.157 10.6002 0.0327198 1.01792 -5.17726 80.328 -19.1265 31.084 55.0346 -42.2013 -31.7016 -59.9277 -18.4787 -0.898389 -17.6985 0.312979 2.99287 -143.832 0.880975 -17.6063 64.7833 17.9637 10.7268 51.19 -3.86231 -6.33103 -99.8971 -2.01659 -5.57076 73.016 -12.5129 -1.73681 52.0367 2.55968 0.21867 -13.715 19.9254 -17.4686 1.14014 -16.1289 -1.7585 
-2.0892597 0.4589040 -0.0835546 -2.33466 4.54315 -15.4483 -174.97 -1.4417 -21.0027 0.946114 -2.31403 21.1801 -10.3739 -1.13287 2.85764 -117.341 69.9354 125.52 -113.587 -45.1556 -131.368 121.878 4.87333 -117.792 -59.5615 -12.7407 9.23436 -2.6752 2.01273 -10.8387 80.8321 -18.5168 31.0708 52.5686 -42.0796 -32.6739 -55.6126 -19.393 0.278343 -16.7533 0.836775 1.1599 -141.977 -0.207477 -17.4865 59.9816 17.2197 12.0584 53.432 -4.12863 -6.5455 -96.855 -1.01186 -6.18177 69.7729 -11.3496 -1.82555 56.7108 2.51116 -0.226061 -11.2813 17.317 -20.4509 2.27945 -13.6814 -2.75889 
